<?xml version="1.0" encoding="UTF-8" standalone="no"?>
<!-- Created with Inkscape (http://www.inkscape.org/) -->

<svg
   width="500"
   height="500"
   viewBox="0 0 132.29167 132.29167"
   version="1.1"
   id="svg5"
   xmlns="http://www.w3.org/2000/svg"
   xmlns:svg="http://www.w3.org/2000/svg">
  <defs
     id="defs2" />
  <g
     id="layer1">
    <path
       id="path3708"
       style="fill:#f0f60b;fill-opacity:1;stroke:none;stroke-width:2.78151"
       d="m 65.770748,5.6970955 c -0.93124,-0.01425 -1.862143,0.01239 -2.792214,0.07908 -7.440567,0.5335602 -14.81384,3.6168932 -21.047813,9.1312065 -6.233969,5.514312 -11.327816,13.4594 -13.941957,20.5153 -2.614145,7.055905 -2.748261,13.221938 -3.351574,18.261737 -0.603312,5.039802 -1.67564,8.952834 -4.021734,13.814759 -2.346092,4.861925 -5.965548,10.672735 -8.043467,15.890557 -2.07792,5.217821 -2.6146063,9.842222 -1.273841,15.119315 1.340764,5.27708 4.558418,11.20657 11.127587,15.23828 6.569165,4.03171 16.489395,6.16567 26.409868,6.28416 9.920472,0.11849 19.840651,-1.77874 28.68857,-5.69204 8.847923,-3.91331 16.622853,-9.84234 22.655597,-14.7043 6.03273,-4.861952 10.32259,-8.656079 14.7466,-13.102993 4.42401,-4.446918 8.98227,-9.546377 11.26131,-14.823257 2.27905,-5.276876 2.2791,-10.731278 0.53644,-15.830395 -1.74266,-5.099118 -5.22841,-9.842611 -9.0491,-13.340927 -3.82067,-3.498315 -7.97601,-5.75117 -13.40551,-11.087361 C 98.839994,26.114024 92.136397,17.694561 85.031205,12.476723 78.814165,7.9111167 72.289415,5.7968425 65.770748,5.6970955 Z" />
    <path
       id="path4125"
       style="fill:#f9bc04;fill-opacity:0.86666662;stroke:none;stroke-width:2.75292"
       d="m 19.175596,24.781417 c -0.631621,0.670449 -1.232547,1.367362 -1.803074,2.089828 -4.56418,5.779761 -7.183428,13.17596 -7.231392,21.328488 -0.04796,8.152525 2.475755,17.06065 5.990466,23.577881 3.514712,6.517239 8.020124,10.642903 11.373395,14.375381 3.353273,3.73248 5.554126,7.071286 7.612664,11.959725 2.05854,4.88843 3.975027,11.32617 6.477607,16.25132 2.502583,4.92515 5.590734,8.33765 10.417256,10.80606 4.826507,2.46839 11.390797,3.99293 18.775862,1.83136 7.385061,-2.16156 15.59062,-8.00888 22.29444,-15.17291 6.703816,-7.16403 11.90535,-15.64455 14.8895,-24.659323 2.98414,-9.014773 3.75065,-18.563022 4.15055,-26.142532 0.39991,-7.579501 0.43328,-13.189273 0.0697,-19.323383 -0.36362,-6.13411 -1.12396,-12.792459 -3.53644,-17.903 -2.41246,-5.110541 -6.47697,-8.673493 -11.43888,-10.73228 -4.961895,-2.058786 -10.821176,-2.612907 -15.975924,-2.109166 -5.154734,0.503728 -9.604543,2.065304 -17.201696,2.54286 -7.597166,0.477567 -18.341571,-0.128903 -26.967973,1.649131 -7.548097,1.55578 -13.474692,4.937427 -17.896031,9.63056 z" />
    <path
       id="path6448"
       style="fill:#fc940f;fill-opacity:0.73387098;stroke:none;stroke-width:2.78151"
       d="m 5.2601565,81.685218 c 0.2261321,0.903481 0.4916843,1.796103 0.7957125,2.677599 2.4323279,7.051986 7.311039,13.382103 14.245178,17.985123 6.934139,4.60301 15.923302,7.47819 23.414487,8.18642 7.491191,0.70823 13.483662,-0.75062 18.508781,-1.46598 5.025123,-0.71536 9.082326,-0.68727 14.384545,0.32716 5.30221,1.01442 11.849309,3.01479 17.426315,3.6784 5.577008,0.66362 10.183585,-0.009 14.937175,-2.66406 4.75358,-2.65495 9.65404,-7.29151 11.85738,-14.677571 2.20334,-7.386061 1.70971,-17.521205 -0.73143,-27.137372 C 117.65717,58.978781 113.26842,49.882165 107.20787,42.34098 101.14731,34.799802 93.415483,28.814677 87.163523,24.238039 80.911572,19.661406 76.140379,16.493749 70.703887,13.364613 65.267377,10.235501 59.165782,7.1447647 53.479884,6.3020327 47.794009,5.4592777 42.523696,6.8643447 38.045604,9.8617837 33.567516,12.859214 29.882094,17.449294 27.4861,22.042232 25.090112,26.635156 23.983756,31.230608 20.226337,37.851504 16.468949,44.472431 10.060579,53.118722 6.8492324,61.32828 4.0393023,68.511638 3.6772313,75.360826 5.2601412,81.685179 Z" />
    <path
       style="fill:#ffffff;fill-opacity:1;stroke-width:7.55906;stroke-opacity:0"
       id="path1962"
       d="M 232.60073,169.41392 181.1232,114.07153 115.38461,151.0989 170.727,99.621378 133.69963,33.882784 l 51.47752,55.342389 65.7386,-37.02737 -55.34239,51.477527 z"
       transform="matrix(0.16210925,0.11890598,-0.11890598,0.16210925,39.549223,7.3987596)" />
    <path
       style="fill:#ffffff;fill-opacity:1;stroke-width:7.55906;stroke-opacity:0"
       id="path2238"
       d="M 232.60073,169.41392 181.1232,114.07153 115.38461,151.0989 170.727,99.621378 133.69963,33.882784 l 51.47752,55.342389 65.7386,-37.02737 -55.34239,51.477527 z"
       transform="matrix(0.08641993,0.06338841,-0.06338841,0.08641993,60.910024,9.0796649)" />
  </g>
  <text
     xml:space="preserve"
     style="font-style:normal;font-weight:normal;font-size:9.87778px;line-height:1.25;font-family:sans-serif;letter-spacing:0px;word-spacing:0px;fill:#ffffff;fill-opacity:1;stroke:none;stroke-width:0.234589;stroke-opacity:1"
     x="44.746231"
     y="72.851578"
     id="text4237"><tspan
       id="tspan4235"
       style="font-style:normal;font-variant:normal;font-weight:normal;font-stretch:normal;font-size:9.87778px;font-family:'Teko SemiBold';-inkscape-font-specification:'Teko SemiBold, ';fill:#ffffff;fill-opacity:1;stroke:none;stroke-width:0.234589;stroke-opacity:1"
       x="44.746231"
       y="72.851578">BEAUTIFUL</tspan></text>
  <text
     xml:space="preserve"
     style="font-style:normal;font-weight:normal;font-size:4.93889px;line-height:1.25;font-family:sans-serif;letter-spacing:0px;word-spacing:0px;fill:#000000;fill-opacity:1;stroke:none;stroke-width:0.264583"
     x="63.390396"
     y="82.577141"
     id="text3100"><tspan
       id="tspan3098"
       style="font-size:4.93889px;text-align:center;text-anchor:middle;fill:#ffffff;fill-opacity:1;stroke-width:0.264583"
       x="63.390396"
       y="82.577141">Need your design</tspan><tspan
       style="font-size:4.93889px;text-align:center;text-anchor:middle;fill:#ffffff;fill-opacity:1;stroke-width:0.264583"
       x="63.390396"
       y="88.750755"
       id="tspan3102">to be beautiful?</tspan><tspan
       style="font-size:4.93889px;text-align:center;text-anchor:middle;fill:#ffffff;fill-opacity:1;stroke-width:0.264583"
       x="63.390396"
       y="94.924362"
       id="tspan3106">You will love</tspan><tspan
       style="font-size:4.93889px;text-align:center;text-anchor:middle;fill:#ffffff;fill-opacity:1;stroke-width:0.264583"
       x="63.390396"
       y="101.09797"
       id="tspan9026">our work!</tspan></text>
  <text
     xml:space="preserve"
     style="font-style:normal;font-weight:normal;font-size:10.5833px;line-height:1.25;font-family:sans-serif;letter-spacing:0px;word-spacing:0px;fill:#000000;fill-opacity:1;stroke:none;stroke-width:0.264583"
     x="161.36678"
     y="78.745041"
     id="text14060"><tspan
       id="tspan14058"
       style="stroke-width:0.264583"
       x="161.36678"
       y="78.745041" /></text>
</svg>
