<?xml version="1.0" encoding="UTF-8" standalone="no"?>
<!-- Created with Inkscape (http://www.inkscape.org/) -->

<svg
   width="512"
   height="512"
   viewBox="0 0 135.46667 135.46667"
   version="1.1"
   id="svg5"
   xmlns="http://www.w3.org/2000/svg"
   xmlns:svg="http://www.w3.org/2000/svg">
  <defs
     id="defs2" />
  <g
     id="layer1">
    <g
       aria-label="D"
       id="text25291"
       style="font-size:22.5778px;line-height:1.25;font-family:Algerian;-inkscape-font-specification:Algerian;letter-spacing:0px;word-spacing:0px;stroke-width:0"
       transform="translate(-28.21829)" />
    <g
       aria-label="D"
       id="g37718"
       style="font-size:22.5778px;line-height:1.25;font-family:Algerian;-inkscape-font-specification:Algerian;letter-spacing:0px;word-spacing:0px;fill:#ffffff;stroke-width:0"
       transform="translate(21.64084)" />
    <g
       aria-label="N"
       id="text39080"
       style="font-size:22.5778px;line-height:1.25;font-family:Corbel;-inkscape-font-specification:Corbel;letter-spacing:0px;word-spacing:0px;stroke-width:0.264583" />
    <g
       aria-label="N"
       id="g44939"
       style="font-size:22.5778px;line-height:1.25;font-family:Corbel;-inkscape-font-specification:Corbel;letter-spacing:0px;word-spacing:0px;stroke-width:0.264583"
       transform="translate(41.346596)" />
    <path
       id="path55004"
       style="font-size:21.6809px;line-height:1.25;font-family:Corbel;-inkscape-font-specification:Corbel;letter-spacing:0px;word-spacing:0px;fill:#ffffff;fill-opacity:1;stroke-width:8.99752"
       d="M 16.933335,5.0321851 V 130.43469 h 28.39805 c 5.68608,0 10.96649,-0.21723 15.84,-0.65472 4.87379,-0.50002 9.40499,-1.34222 13.59128,-2.52942 7.31054,-2.06192 13.68165,-4.97045 19.11772,-8.7194 5.49847,-3.74895 10.060815,-8.18263 13.684675,-13.3062 3.68654,-5.18604 6.4353,-10.998624 8.24737,-17.434334 1.81193,-6.435692 2.72091,-13.30791 2.72091,-20.618383 0,-7.247976 -0.90926,-13.996038 -2.72091,-20.244297 -1.74954,-6.310728 -4.4363,-11.968134 -8.06031,-16.966746 -3.56146,-5.061095 -8.088275,-9.432692 -13.586745,-13.119162 -5.43594,-3.68647 -11.81171,-6.559491 -19.12212,-8.621421 -4.18628,-1.187246 -8.71762,-2.0029999 -13.59113,-2.4403759 -4.87365,-0.499886 -10.14982,-0.748252 -15.83562,-0.748252 z M 56.031955,38.946986 105.71103,37.224471 80.012495,80.477675 Z m -7.63173,16.042965 22.25515,43.252465 h -47.95669 z" />
  </g>
</svg>
